<svg width="72" height="100" viewBox="0 0 72 100" fill="none" xmlns="http://www.w3.org/2000/svg">
<path d="M46.0937 5.4L35.6625 0L25.2312 5.4L13.6187 7.1625L8.35625 17.6625L0 25.9125L1.9125 37.5L0 49.0875L8.35625 57.3375L13.6187 67.8375L25.2312 69.6L35.6625 75L46.0937 69.6L57.7063 67.8375L62.9687 57.3375L71.325 49.0875L69.4125 37.5L71.325 25.9125L62.9687 17.6625L57.7063 7.1625L46.0937 5.4ZM53.5687 12.8562L57.8437 21.3875L64.6312 28.0875L63.0812 37.5L64.6312 46.9125L57.8437 53.6125L53.5687 62.1437L44.1312 63.575L35.6625 67.9625L27.1937 63.575L17.7563 62.1437L13.4813 53.6125L6.69375 46.9125L8.25 37.5L6.6875 28.0875L13.4813 21.3875L17.7563 12.8562L27.1937 11.425L35.6625 7.0375L44.1375 11.425L53.5687 12.8562Z" fill="white"/>
<path d="M10.6625 73.7124V99.9999L35.6625 93.7499L60.6625 99.9999V73.7124L48.05 75.6249L35.6625 82.0374L23.275 75.6249L10.6625 73.7124Z" fill="white"/>
</svg>
