<svg width="100" height="115" viewBox="0 0 100 115" fill="none" xmlns="http://www.w3.org/2000/svg">
<g clip-path="url(#clip0_702_6)">
<path d="M97.3214 107.143H92.8571V5.35714C92.8571 2.39844 90.4587 0 87.5 0H12.5C9.54129 0 7.14286 2.39844 7.14286 5.35714V107.143H2.67857C1.19933 107.143 0 108.342 0 109.821V114.286H100V109.821C100 108.342 98.8007 107.143 97.3214 107.143ZM28.5714 16.9643C28.5714 15.485 29.7708 14.2857 31.25 14.2857H40.1786C41.6578 14.2857 42.8571 15.485 42.8571 16.9643V25.8929C42.8571 27.3721 41.6578 28.5714 40.1786 28.5714H31.25C29.7708 28.5714 28.5714 27.3721 28.5714 25.8929V16.9643ZM28.5714 38.3929C28.5714 36.9136 29.7708 35.7143 31.25 35.7143H40.1786C41.6578 35.7143 42.8571 36.9136 42.8571 38.3929V47.3214C42.8571 48.8007 41.6578 50 40.1786 50H31.25C29.7708 50 28.5714 48.8007 28.5714 47.3214V38.3929ZM40.1786 71.4286H31.25C29.7708 71.4286 28.5714 70.2292 28.5714 68.75V59.8214C28.5714 58.3422 29.7708 57.1429 31.25 57.1429H40.1786C41.6578 57.1429 42.8571 58.3422 42.8571 59.8214V68.75C42.8571 70.2292 41.6578 71.4286 40.1786 71.4286ZM57.1429 107.143H42.8571V88.3929C42.8571 86.9136 44.0565 85.7143 45.5357 85.7143H54.4643C55.9435 85.7143 57.1429 86.9136 57.1429 88.3929V107.143ZM71.4286 68.75C71.4286 70.2292 70.2292 71.4286 68.75 71.4286H59.8214C58.3422 71.4286 57.1429 70.2292 57.1429 68.75V59.8214C57.1429 58.3422 58.3422 57.1429 59.8214 57.1429H68.75C70.2292 57.1429 71.4286 58.3422 71.4286 59.8214V68.75ZM71.4286 47.3214C71.4286 48.8007 70.2292 50 68.75 50H59.8214C58.3422 50 57.1429 48.8007 57.1429 47.3214V38.3929C57.1429 36.9136 58.3422 35.7143 59.8214 35.7143H68.75C70.2292 35.7143 71.4286 36.9136 71.4286 38.3929V47.3214ZM71.4286 25.8929C71.4286 27.3721 70.2292 28.5714 68.75 28.5714H59.8214C58.3422 28.5714 57.1429 27.3721 57.1429 25.8929V16.9643C57.1429 15.485 58.3422 14.2857 59.8214 14.2857H68.75C70.2292 14.2857 71.4286 15.485 71.4286 16.9643V25.8929Z" fill="white"/>
</g>
<defs>
<clipPath id="clip0_702_6">
<rect width="100" height="114.286" fill="white"/>
</clipPath>
</defs>
</svg>
