<svg width="100" height="58" viewBox="0 0 100 58" fill="none" xmlns="http://www.w3.org/2000/svg">
<path d="M2.20115 2.20116C3.61098 0.791757 5.52285 0 7.51634 0C9.50984 0 11.4217 0.791757 12.8315 2.20116L50.0454 39.415L87.2592 2.20116C88.6771 0.8317 90.5762 0.0739294 92.5474 0.0910585C94.5186 0.108188 96.4042 0.898844 97.798 2.29273C99.1919 3.68662 99.9826 5.57222 99.9997 7.5434C100.017 9.51458 99.2591 11.4136 97.8896 12.8315L55.3606 55.3606C53.9508 56.77 52.0389 57.5617 50.0454 57.5617C48.0519 57.5617 46.14 56.77 44.7302 55.3606L2.20115 12.8315C0.791756 11.4217 0 9.50984 0 7.51634C0 5.52285 0.791756 3.61098 2.20115 2.20116V2.20116Z" fill="white"/>
</svg>
