<svg width="100" height="100" viewBox="0 0 100 100" fill="none" xmlns="http://www.w3.org/2000/svg">
<path fill-rule="evenodd" clip-rule="evenodd" d="M31.1042 4.44175C35.9917 4.21675 37.55 4.16675 50 4.16675C62.45 4.16675 64.0083 4.22091 68.8917 4.44175C73.775 4.66258 77.1083 5.44175 80.025 6.57091C83.0792 7.72508 85.85 9.52925 88.1417 11.8626C90.475 14.1501 92.275 16.9167 93.425 19.9751C94.5583 22.8917 95.3333 26.2251 95.5583 31.1001C95.7833 35.9959 95.8333 37.5542 95.8333 50.0001C95.8333 62.4501 95.7792 64.0084 95.5583 68.8959C95.3375 73.7709 94.5583 77.1042 93.425 80.0209C92.275 83.0796 90.472 85.8509 88.1417 88.1417C85.85 90.4751 83.0792 92.2751 80.025 93.4251C77.1083 94.5584 73.775 95.3334 68.9 95.5584C64.0083 95.7834 62.45 95.8334 50 95.8334C37.55 95.8334 35.9917 95.7792 31.1042 95.5584C26.2292 95.3376 22.8958 94.5584 19.9792 93.4251C16.9205 92.2749 14.1492 90.472 11.8583 88.1417C9.52658 85.8529 7.72214 83.0829 6.57083 80.0251C5.44166 77.1084 4.66666 73.7751 4.44166 68.9001C4.21666 64.0042 4.16666 62.4459 4.16666 50.0001C4.16666 37.5501 4.22083 35.9917 4.44166 31.1084C4.6625 26.2251 5.44166 22.8917 6.57083 19.9751C7.72384 16.9171 9.52966 14.1472 11.8625 11.8584C14.1502 9.52717 16.9186 7.72276 19.975 6.57091C22.8917 5.44175 26.225 4.66675 31.1 4.44175H31.1042ZM68.5208 12.6917C63.6875 12.4709 62.2375 12.4251 50 12.4251C37.7625 12.4251 36.3125 12.4709 31.4792 12.6917C27.0083 12.8959 24.5833 13.6417 22.9667 14.2709C20.8292 15.1042 19.3 16.0917 17.6958 17.6959C16.1752 19.1753 15.0049 20.9763 14.2708 22.9667C13.6417 24.5834 12.8958 27.0084 12.6917 31.4792C12.4708 36.3126 12.425 37.7626 12.425 50.0001C12.425 62.2376 12.4708 63.6876 12.6917 68.5209C12.8958 72.9917 13.6417 75.4167 14.2708 77.0334C15.0042 79.0209 16.175 80.8251 17.6958 82.3042C19.175 83.8251 20.9792 84.9959 22.9667 85.7292C24.5833 86.3584 27.0083 87.1042 31.4792 87.3084C36.3125 87.5292 37.7583 87.5751 50 87.5751C62.2417 87.5751 63.6875 87.5292 68.5208 87.3084C72.9917 87.1042 75.4167 86.3584 77.0333 85.7292C79.1708 84.8959 80.7 83.9084 82.3042 82.3042C83.825 80.8251 84.9958 79.0209 85.7292 77.0334C86.3583 75.4167 87.1042 72.9917 87.3083 68.5209C87.5292 63.6876 87.575 62.2376 87.575 50.0001C87.575 37.7626 87.5292 36.3126 87.3083 31.4792C87.1042 27.0084 86.3583 24.5834 85.7292 22.9667C84.8958 20.8292 83.9083 19.3001 82.3042 17.6959C80.8247 16.1754 79.0238 15.0051 77.0333 14.2709C75.4167 13.6417 72.9917 12.8959 68.5208 12.6917ZM44.1458 64.1292C47.4152 65.4902 51.0557 65.6739 54.4455 64.6489C57.8353 63.6239 60.7641 61.4539 62.7317 58.5094C64.6993 55.565 65.5836 52.0287 65.2335 48.5047C64.8835 44.9807 63.3209 41.6875 60.8125 39.1876C59.2135 37.5896 57.28 36.366 55.1514 35.6049C53.0227 34.8438 50.7518 34.5641 48.5021 34.786C46.2523 35.0079 44.0798 35.7258 42.1408 36.8881C40.2019 38.0504 38.5448 39.6282 37.2888 41.5078C36.0328 43.3874 35.2091 45.5221 34.8771 47.7583C34.5452 49.9944 34.7131 52.2763 35.3689 54.4397C36.0247 56.6032 37.152 58.5943 38.6697 60.2698C40.1873 61.9452 42.0576 63.2633 44.1458 64.1292ZM33.3417 33.3417C35.5293 31.1541 38.1263 29.4188 40.9846 28.2349C43.8428 27.051 46.9063 26.4416 50 26.4416C53.0937 26.4416 56.1572 27.051 59.0154 28.2349C61.8737 29.4188 64.4707 31.1541 66.6583 33.3417C68.8459 35.5294 70.5812 38.1264 71.7652 40.9847C72.9491 43.8429 73.5584 46.9063 73.5584 50.0001C73.5584 53.0938 72.9491 56.1573 71.7652 59.0155C70.5812 61.8737 68.8459 64.4708 66.6583 66.6584C62.2403 71.0765 56.2481 73.5585 50 73.5585C43.7519 73.5585 37.7597 71.0765 33.3417 66.6584C28.9236 62.2403 26.4416 56.2482 26.4416 50.0001C26.4416 43.752 28.9236 37.7598 33.3417 33.3417ZM78.7833 29.9501C79.3254 29.4387 79.7594 28.8238 80.0596 28.1416C80.3598 27.4595 80.52 26.7241 80.5309 25.979C80.5418 25.2338 80.403 24.494 80.1228 23.8035C79.8427 23.1129 79.4268 22.4855 78.8998 21.9586C78.3729 21.4316 77.7455 21.0157 77.055 20.7356C76.3644 20.4554 75.6246 20.3166 74.8794 20.3275C74.1343 20.3384 73.3989 20.4986 72.7168 20.7988C72.0347 21.099 71.4197 21.533 70.9083 22.0751C69.9138 23.1294 69.3693 24.5298 69.3904 25.979C69.4115 27.4282 69.9966 28.8121 71.0215 29.8369C72.0463 30.8618 73.4302 31.4469 74.8794 31.468C76.3287 31.4891 77.729 30.9446 78.7833 29.9501Z" fill="white"/>
</svg>
