<svg width="78" height="67" viewBox="0 0 78 67" fill="none" xmlns="http://www.w3.org/2000/svg">
<path d="M77.0778 33.1774C77.0778 31.5198 76.4193 29.9301 75.2472 28.758C74.0751 27.5859 72.4854 26.9274 70.8278 26.9274H21.3278L37.7445 10.5108C38.8485 9.32597 39.4495 7.75892 39.421 6.13974C39.3924 4.52057 38.7365 2.97569 37.5913 1.83058C36.4462 0.685475 34.9014 0.0295422 33.2822 0.000973725C31.663 -0.0275947 30.096 0.573432 28.9112 1.67743L1.82783 28.7608C0.657414 29.9326 0 31.5212 0 33.1774C0 34.8337 0.657414 36.4222 1.82783 37.5941L28.9112 64.6774C30.096 65.7814 31.663 66.3825 33.2822 66.3539C34.9014 66.3253 36.4462 65.6694 37.5913 64.5243C38.7365 63.3792 39.3924 61.8343 39.421 60.2151C39.4495 58.5959 38.8485 57.0289 37.7445 55.8441L21.3278 39.4274H70.8278C72.4854 39.4274 74.0751 38.769 75.2472 37.5968C76.4193 36.4247 77.0778 34.835 77.0778 33.1774Z" fill="#505376"/>
</svg>
