<svg width="100" height="100" viewBox="0 0 100 100" fill="none" xmlns="http://www.w3.org/2000/svg">
<path fill-rule="evenodd" clip-rule="evenodd" d="M1.23663e-06 8.35456C1.23663e-06 6.13879 0.88021 4.01378 2.44699 2.447C4.01377 0.880219 6.13878 1.11378e-05 8.35455 1.11378e-05H91.6364C92.7344 -0.00178228 93.8221 0.213024 94.837 0.632132C95.8519 1.05124 96.7742 1.66642 97.5511 2.44245C98.328 3.21848 98.9442 4.14012 99.3644 5.1546C99.7846 6.16908 100.001 7.25649 100 8.35456V91.6364C100.001 92.7346 99.7858 93.8224 99.3662 94.8374C98.9466 95.8523 98.331 96.7746 97.5546 97.5514C96.7782 98.3282 95.8563 98.9443 94.8415 99.3645C93.8268 99.7846 92.7392 100.001 91.6409 100H8.35455C7.25703 100 6.17027 99.7837 5.15635 99.3636C4.14243 98.9435 3.22123 98.3277 2.44538 97.5514C1.66953 96.7751 1.05424 95.8536 0.634648 94.8394C0.21506 93.8253 -0.000595889 92.7384 1.23663e-06 91.6409V8.35456ZM39.5818 38.1273H53.1227V44.9273C55.0773 41.0182 60.0773 37.5 67.5909 37.5C81.9954 37.5 85.4091 45.2864 85.4091 59.5727V86.0364H70.8318V62.8273C70.8318 54.6909 68.8773 50.1 63.9136 50.1C57.0273 50.1 54.1636 55.05 54.1636 62.8273V86.0364H39.5818V38.1273ZM14.5818 85.4136H29.1636V37.5H14.5818V85.4091V85.4136ZM31.25 21.8727C31.2775 23.1212 31.0553 24.3627 30.5965 25.5242C30.1378 26.6857 29.4516 27.7438 28.5783 28.6365C27.7051 29.5292 26.6623 30.2385 25.5112 30.7228C24.3601 31.207 23.1238 31.4564 21.875 31.4564C20.6262 31.4564 19.3899 31.207 18.2388 30.7228C17.0877 30.2385 16.0449 29.5292 15.1717 28.6365C14.2984 27.7438 13.6122 26.6857 13.1535 25.5242C12.6947 24.3627 12.4725 23.1212 12.5 21.8727C12.554 19.4221 13.5654 17.09 15.3177 15.3759C17.0699 13.6617 19.4237 12.7019 21.875 12.7019C24.3263 12.7019 26.6801 13.6617 28.4323 15.3759C30.1846 17.09 31.196 19.4221 31.25 21.8727V21.8727Z" fill="#151A48"/>
</svg>
