<svg width="69" height="88" viewBox="0 0 69 88" fill="none" xmlns="http://www.w3.org/2000/svg">
<path d="M34.375 0C25.2615 0.0107515 16.5243 3.63585 10.0801 10.0801C3.63588 16.5243 0.010788 25.2615 3.65715e-05 34.375C-0.0108787 41.8226 2.42185 49.0681 6.92504 55C6.92504 55 7.86254 56.2344 8.01566 56.4125L34.375 87.5L60.7469 56.3969C60.8844 56.2313 61.825 55 61.825 55L61.8282 54.9906C66.3291 49.0613 68.7607 41.8192 68.75 34.375C68.7393 25.2615 65.1142 16.5243 58.67 10.0801C52.2257 3.63585 43.4885 0.0107515 34.375 0V0ZM34.375 46.875C31.9028 46.875 29.486 46.1419 27.4304 44.7684C25.3748 43.3949 23.7726 41.4426 22.8265 39.1585C21.8804 36.8745 21.6329 34.3611 22.1152 31.9364C22.5975 29.5116 23.788 27.2843 25.5362 25.5362C27.2844 23.788 29.5116 22.5975 31.9364 22.1152C34.3612 21.6329 36.8745 21.8804 39.1586 22.8265C41.4427 23.7726 43.3949 25.3748 44.7684 27.4304C46.1419 29.486 46.875 31.9027 46.875 34.375C46.8709 37.6889 45.5526 40.866 43.2093 43.2093C40.866 45.5526 37.689 46.8709 34.375 46.875V46.875Z" fill="black"/>
</svg>
