<svg width="100" height="80" viewBox="0 0 100 80" fill="none" xmlns="http://www.w3.org/2000/svg">
<path d="M90 0H10C4.5 0 0 4.5 0 10V70C0 75.5 4.5 80 10 80H90C95.5 80 100 75.5 100 70V10C100 4.5 95.5 0 90 0ZM88 21.25L55.3 41.7C52.05 43.75 47.95 43.75 44.7 41.7L12 21.25C11.4986 20.9686 11.0596 20.5883 10.7094 20.1323C10.3593 19.6762 10.1053 19.1539 9.96288 18.5969C9.82044 18.0398 9.79251 17.4597 9.88078 16.8915C9.96905 16.3234 10.1717 15.7791 10.4764 15.2915C10.7811 14.8039 11.1816 14.3833 11.6536 14.055C12.1256 13.7267 12.6594 13.4976 13.2225 13.3815C13.7856 13.2654 14.3664 13.2648 14.9298 13.3797C15.4931 13.4946 16.0273 13.7227 16.5 14.05L50 35L83.5 14.05C83.9727 13.7227 84.5069 13.4946 85.0702 13.3797C85.6336 13.2648 86.2144 13.2654 86.7775 13.3815C87.3406 13.4976 87.8744 13.7267 88.3464 14.055C88.8184 14.3833 89.2189 14.8039 89.5236 15.2915C89.8283 15.7791 90.031 16.3234 90.1192 16.8915C90.2075 17.4597 90.1796 18.0398 90.0371 18.5969C89.8947 19.1539 89.6407 19.6762 89.2906 20.1323C88.9404 20.5883 88.5014 20.9686 88 21.25V21.25Z" fill="black"/>
</svg>
