<svg width="84" height="67" viewBox="0 0 84 67" fill="none" xmlns="http://www.w3.org/2000/svg">
<path d="M75 0H8.33333C3.75 0 0 3.75 0 8.33333V58.3333C0 62.9167 3.75 66.6667 8.33333 66.6667H75C79.5833 66.6667 83.3333 62.9167 83.3333 58.3333V8.33333C83.3333 3.75 79.5833 0 75 0ZM73.3333 17.7083L46.0833 34.75C43.375 36.4583 39.9583 36.4583 37.25 34.75L10 17.7083C9.5822 17.4738 9.21633 17.1569 8.92454 16.7769C8.63274 16.3969 8.42109 15.9616 8.3024 15.4974C8.1837 15.0332 8.16043 14.5497 8.23399 14.0763C8.30754 13.6028 8.4764 13.1492 8.73034 12.7429C8.98428 12.3366 9.31802 11.9861 9.71136 11.7125C10.1047 11.4389 10.5495 11.248 11.0187 11.1512C11.488 11.0545 11.972 11.054 12.4415 11.1498C12.9109 11.2455 13.3561 11.4356 13.75 11.7083L41.6667 29.1667L69.5833 11.7083C69.9772 11.4356 70.4224 11.2455 70.8919 11.1498C71.3613 11.054 71.8453 11.0545 72.3146 11.1512C72.7839 11.248 73.2286 11.4389 73.622 11.7125C74.0153 11.9861 74.3491 12.3366 74.603 12.7429C74.8569 13.1492 75.0258 13.6028 75.0994 14.0763C75.1729 14.5497 75.1496 15.0332 75.0309 15.4974C74.9122 15.9616 74.7006 16.3969 74.4088 16.7769C74.117 17.1569 73.7511 17.4738 73.3333 17.7083V17.7083Z" fill="white"/>
</svg>
