<svg width="100" height="100" viewBox="0 0 100 100" fill="none" xmlns="http://www.w3.org/2000/svg">
<path d="M98.9316 1.0636C99.4523 1.58468 99.8028 2.25141 99.9367 2.97579C100.071 3.70016 99.9818 4.44813 99.6819 5.12097L58.4745 97.8359C58.1866 98.4843 57.7155 99.0345 57.1192 99.419C56.523 99.8034 55.8274 100.005 55.1179 99.9999C54.4084 99.9945 53.716 99.782 53.1257 99.3885C52.5353 98.995 52.0727 98.4376 51.7948 97.7849L36.9274 63.0678L2.20305 48.1932C1.55274 47.9135 0.998045 47.4503 0.606797 46.8603C0.21555 46.2704 0.00471506 45.5792 7.81632e-05 44.8713C-0.00455873 44.1634 0.197204 43.4694 0.580689 42.8744C0.964174 42.2793 1.51276 41.809 2.15935 41.5207L94.8743 0.313311C95.5462 0.0150023 96.2927 -0.0729797 97.0156 0.0609345C97.7384 0.194849 98.4039 0.544389 98.9243 1.0636H98.9316ZM12.7435 44.7841L41.1305 56.949C41.9889 57.319 42.6723 58.0049 43.039 58.8647L55.2038 87.2518L89.1779 10.81L12.7435 44.7841Z" fill="white"/>
</svg>
