<svg width="100" height="88" viewBox="0 0 100 88" fill="none" xmlns="http://www.w3.org/2000/svg">
<path d="M49.9188 0.00624955C53.6102 0.00624955 57.1505 1.47268 59.7608 4.08296C62.3711 6.69323 63.8375 10.2335 63.8375 13.925C63.8375 17.6165 62.3711 21.1568 59.7608 23.767C57.1505 26.3773 53.6102 27.8437 49.9188 27.8437C46.2264 27.8437 42.6854 26.377 40.0745 23.7661C37.4636 21.1553 35.9969 17.6142 35.9969 13.9219C35.9969 10.2296 37.4636 6.68848 40.0745 4.07762C42.6854 1.46676 46.2264 0 49.9188 0V0.00624955ZM49.9188 6.25625C47.8849 6.25625 45.9343 7.0642 44.4961 8.50237C43.058 9.94054 42.25 11.8911 42.25 13.925C42.25 15.9589 43.058 17.9095 44.4961 19.3476C45.9343 20.7858 47.8849 21.5937 49.9188 21.5937C51.9535 21.5937 53.9048 20.7855 55.3436 19.3467C56.7823 17.908 57.5906 15.9566 57.5906 13.9219C57.5906 11.8872 56.7823 9.9358 55.3436 8.49704C53.9048 7.05828 51.9535 6.25 49.9188 6.25V6.25625ZM6.35 53.1937C6.35 54.0225 6.02076 54.8174 5.43471 55.4035C4.84866 55.9895 4.0538 56.3187 3.225 56.3187C2.3962 56.3187 1.60134 55.9895 1.01529 55.4035C0.429239 54.8174 0.1 54.0225 0.1 53.1937V37.6562C0.100202 36.1254 0.662225 34.6479 1.67947 33.5039C2.69671 32.36 4.09843 31.6291 5.61875 31.45L6.35 31.4062H23.5812C22.6718 32.9754 22.1172 34.7247 21.9563 36.5312L21.9063 37.6562H6.34375V53.1937H6.35ZM96.8125 56.3187C97.6413 56.3187 98.4362 55.9895 99.0222 55.4035C99.6083 54.8174 99.9375 54.0225 99.9375 53.1937V37.6562L99.8937 36.9312C99.7161 35.4098 98.9858 34.0066 97.8417 32.9881C96.6976 31.9695 95.2193 31.4066 93.6875 31.4062H76.2875C77.2 32.9875 77.7875 34.8 77.925 36.725L77.9562 37.6625H93.6875V53.1937C93.6875 54.0225 94.0167 54.8174 94.6028 55.4035C95.1888 55.9895 95.9837 56.3187 96.8125 56.3187V56.3187ZM65.4625 31.4062C66.9943 31.4066 68.4726 31.9695 69.6167 32.9881C70.7608 34.0066 71.4911 35.4098 71.6688 36.9312L71.7062 37.6562V53.1937C71.7062 54.0225 71.377 54.8174 70.791 55.4035C70.2049 55.9895 69.41 56.3187 68.5812 56.3187C67.7524 56.3187 66.9576 55.9895 66.3715 55.4035C65.7855 54.8174 65.4562 54.0225 65.4562 53.1937V37.6562H34.4063V53.1937C34.4063 54.0225 34.077 54.8174 33.491 55.4035C32.9049 55.9895 32.1101 56.3187 31.2813 56.3187C30.4524 56.3187 29.6576 55.9895 29.0715 55.4035C28.4855 54.8174 28.1563 54.0225 28.1563 53.1937V37.6562C28.1565 36.1254 28.7185 34.6479 29.7357 33.5039C30.753 32.36 32.1547 31.6291 33.675 31.45L34.4063 31.4062H65.4562H65.4625ZM93.05 15.8875C93.05 12.7157 91.79 9.67376 89.5472 7.43095C87.3044 5.18813 84.2624 3.92812 81.0906 3.92812C77.9188 3.92812 74.8769 5.18813 72.6341 7.43095C70.3913 9.67376 69.1312 12.7157 69.1312 15.8875C69.1312 19.0593 70.3913 22.1012 72.6341 24.3441C74.8769 26.5869 77.9188 27.8469 81.0906 27.8469C84.2624 27.8469 87.3044 26.5869 89.5472 24.3441C91.79 22.1012 93.05 19.0593 93.05 15.8875V15.8875ZM75.3812 15.8875C75.3812 14.3733 75.9828 12.9211 77.0535 11.8504C78.1242 10.7796 79.5764 10.1781 81.0906 10.1781C82.6048 10.1781 84.057 10.7796 85.1278 11.8504C86.1985 12.9211 86.8 14.3733 86.8 15.8875C86.8 17.4017 86.1985 18.8539 85.1278 19.9246C84.057 20.9954 82.6048 21.5969 81.0906 21.5969C79.5764 21.5969 78.1242 20.9954 77.0535 19.9246C75.9828 18.8539 75.3812 17.4017 75.3812 15.8875ZM18.85 3.925C22.0218 3.925 25.0637 5.185 27.3066 7.42782C29.5494 9.67064 30.8094 12.7126 30.8094 15.8844C30.8094 19.0562 29.5494 22.0981 27.3066 24.3409C25.0637 26.5837 22.0218 27.8437 18.85 27.8437C15.6782 27.8437 12.6363 26.5837 10.3934 24.3409C8.15063 22.0981 6.89062 19.0562 6.89062 15.8844C6.89062 12.7126 8.15063 9.67064 10.3934 7.42782C12.6363 5.185 15.6782 3.925 18.85 3.925V3.925ZM18.85 10.175C17.3358 10.175 15.8836 10.7765 14.8129 11.8472C13.7421 12.918 13.1406 14.3702 13.1406 15.8844C13.1406 17.3986 13.7421 18.8508 14.8129 19.9215C15.8836 20.9922 17.3358 21.5937 18.85 21.5937C20.3642 21.5937 21.8164 20.9922 22.8871 19.9215C23.9579 18.8508 24.5594 17.3986 24.5594 15.8844C24.5594 14.3702 23.9579 12.918 22.8871 11.8472C21.8164 10.7765 20.3642 10.175 18.85 10.175V10.175ZM3.125 62.5687C2.2962 62.5687 1.50134 62.898 0.915292 63.484C0.329241 64.0701 0 64.8649 0 65.6937V71.9437C0 76.0878 1.6462 80.062 4.57646 82.9923C7.50671 85.9225 11.481 87.5687 15.625 87.5687H84.375C88.519 87.5687 92.4933 85.9225 95.4235 82.9923C98.3538 80.062 100 76.0878 100 71.9437V65.6937C100 64.8649 99.6708 64.0701 99.0847 63.484C98.4987 62.898 97.7038 62.5687 96.875 62.5687H3.125ZM6.25 71.9437V68.8187H93.75V71.9437C93.75 74.4302 92.7623 76.8147 91.0041 78.5729C89.246 80.331 86.8614 81.3187 84.375 81.3187H15.625C13.1386 81.3187 10.754 80.331 8.99587 78.5729C7.23772 76.8147 6.25 74.4302 6.25 71.9437Z" fill="white"/>
</svg>
