<svg width="100" height="100" viewBox="0 0 100 100" fill="none" xmlns="http://www.w3.org/2000/svg">
<path d="M66.6709 71.0693L75.2819 62.4549C76.4417 61.309 77.9091 60.5246 79.5059 60.197C81.1027 59.8693 82.7602 60.0124 84.2773 60.6089L94.7719 64.8008C96.305 65.4233 97.6196 66.4859 98.5499 67.8547C99.4803 69.2234 99.9849 70.8371 100 72.4923V91.7209C99.9911 92.8469 99.7545 93.9594 99.3045 94.9914C98.8544 96.0235 98.2003 96.9538 97.3814 97.7263C96.5625 98.4988 95.5959 99.0975 94.5396 99.4864C93.4834 99.8753 92.3593 100.046 91.2353 99.9893C17.696 95.4128 2.85745 33.1119 0.0511948 9.26838C-0.0790735 8.09749 0.0399492 6.91228 0.400432 5.79072C0.760915 4.66915 1.35469 3.63666 2.14269 2.76115C2.93069 1.88564 3.89506 1.18697 4.97236 0.711094C6.04965 0.235219 7.21546 -0.00707292 8.39308 0.000157171H26.9605C28.6174 0.00506351 30.2349 0.505746 31.605 1.43781C32.9751 2.36987 34.0352 3.69068 34.6489 5.23036L38.839 15.7292C39.4551 17.2408 39.6122 18.9006 39.2909 20.501C38.9696 22.1015 38.184 23.5718 37.0323 24.7282L28.4213 33.3427C28.4213 33.3427 33.3803 66.9159 66.6709 71.0693Z" fill="#151A48"/>
</svg>
