<svg width="78" height="67" viewBox="0 0 78 67" fill="none" xmlns="http://www.w3.org/2000/svg">
<path d="M0 33.1774C0 31.5198 0.65848 29.9301 1.83058 28.758C3.00269 27.5859 4.5924 26.9274 6.25 26.9274H55.75L39.3333 10.5108C38.2293 9.32597 37.6283 7.75892 37.6569 6.13974C37.6854 4.52057 38.3414 2.97569 39.4865 1.83058C40.6316 0.685475 42.1765 0.0295422 43.7956 0.000973725C45.4148 -0.0275947 46.9819 0.573432 48.1667 1.67743L75.25 28.7608C76.4204 29.9326 77.0778 31.5212 77.0778 33.1774C77.0778 34.8337 76.4204 36.4222 75.25 37.5941L48.1667 64.6774C46.9819 65.7814 45.4148 66.3825 43.7956 66.3539C42.1765 66.3253 40.6316 65.6694 39.4865 64.5243C38.3414 63.3792 37.6854 61.8343 37.6569 60.2151C37.6283 58.5959 38.2293 57.0289 39.3333 55.8441L55.75 39.4274H6.25C4.5924 39.4274 3.00269 38.769 1.83058 37.5968C0.65848 36.4247 0 34.835 0 33.1774Z" fill="#EC4176"/>
</svg>
