<svg width="58" height="100" viewBox="0 0 58 100" fill="none" xmlns="http://www.w3.org/2000/svg">
<path d="M2.20116 2.20115C0.791757 3.61098 0 5.52285 0 7.51634C0 9.50984 0.791757 11.4217 2.20116 12.8315L39.415 50.0454L2.20116 87.2592C0.8317 88.6771 0.0739294 90.5762 0.0910585 92.5474C0.108188 94.5186 0.898844 96.4042 2.29273 97.798C3.68662 99.1919 5.57222 99.9826 7.5434 99.9997C9.51458 100.017 11.4136 99.2591 12.8315 97.8896L55.3606 55.3606C56.77 53.9508 57.5617 52.0389 57.5617 50.0454C57.5617 48.0519 56.77 46.14 55.3606 44.7302L12.8315 2.20115C11.4217 0.791756 9.50984 0 7.51634 0C5.52285 0 3.61098 0.791756 2.20116 2.20115V2.20115Z" fill="black"/>
</svg>
