<svg width="99" height="100" viewBox="0 0 99 100" fill="none" xmlns="http://www.w3.org/2000/svg">
<path d="M95.1376 15.2525C94.8515 15.2235 66.3685 12.2353 52.9825 0.810438L52.0331 0H46.1505L45.2009 0.810438C31.8386 12.2152 3.33147 15.2235 3.04708 15.2525L0 15.5596V18.621C0 37.4818 3.0985 53.6292 9.20958 66.6152C17.2727 83.7493 30.391 94.9 48.201 99.7571L49.0918 100L49.9826 99.7571C67.7922 94.9 80.9109 83.7493 88.974 66.6152C95.0851 53.6292 98.1836 37.4818 98.1836 18.621V15.5596L95.1376 15.2525ZM91.3848 21.6074C91.3514 23.4115 91.2845 25.2374 91.1842 27.0851H52.4774V8.86932C65.1569 17.2418 84.0113 20.5756 91.3848 21.6074ZM52.4774 64.3272H82.5813C81.163 67.2766 79.5095 70.1071 77.637 72.7913H52.4774V64.3272ZM52.4774 57.5559V49.0918H88.0055C87.2413 52.1663 86.3063 55.1958 85.2047 58.1662V57.5559H52.4774ZM52.4774 42.3205V33.8564H90.6459C90.3496 36.6722 89.9569 39.5024 89.4527 42.3205H52.4774ZM6.79879 21.6074C14.1723 20.5756 33.0267 17.2418 45.7062 8.8689V91.8829C14.8147 80.9145 7.2986 48.5389 6.79879 21.6074ZM52.4774 91.8829V79.5626H72.0183C66.8768 84.7892 60.4566 89.05 52.4774 91.8829Z" fill="white"/>
</svg>
