<svg width="100" height="96" viewBox="0 0 100 96" fill="none" xmlns="http://www.w3.org/2000/svg">
<path d="M97.3037 43.2843C98.425 42.449 99.2567 41.2838 99.6822 39.9519C100.108 38.6201 100.106 37.1885 99.6767 35.8578C99.2476 34.5271 98.4127 33.3641 97.2893 32.5319C96.1658 31.6996 94.81 31.2398 93.412 31.217L66.2607 30.1913C66.1272 30.1821 65.9992 30.1344 65.8921 30.0542C65.7851 29.9739 65.7035 29.8643 65.6573 29.7388L56.275 4.39747C55.8036 3.1082 54.9474 1.99493 53.8223 1.20838C52.6973 0.421831 51.3577 0 49.9849 0C48.6122 0 47.2726 0.421831 46.1475 1.20838C45.0224 1.99493 44.1662 3.1082 43.6948 4.39747L34.3427 29.8293C34.2965 29.9548 34.2149 30.0644 34.1079 30.1447C34.0008 30.2249 33.8728 30.2726 33.7393 30.2818L6.58797 31.3075C5.18999 31.3303 3.83421 31.7901 2.71074 32.6224C1.58726 33.4546 0.752416 34.6176 0.323274 35.9483C-0.105869 37.279 -0.107795 38.7106 0.317767 40.0424C0.743329 41.3743 1.57504 42.5395 2.69627 43.3748L23.995 60.1181C24.1016 60.202 24.1813 60.3153 24.2242 60.444C24.2671 60.5727 24.2713 60.7111 24.2364 60.8422L16.9055 86.817C16.5256 88.1397 16.5624 89.5473 17.0109 90.8483C17.4594 92.1494 18.2978 93.2807 19.412 94.0883C20.5263 94.896 21.8623 95.3408 23.2383 95.3623C24.6143 95.3837 25.9635 94.9807 27.1023 94.2082L49.6078 79.1241C49.7187 79.0475 49.8502 79.0066 49.9849 79.0066C50.1196 79.0066 50.2512 79.0475 50.362 79.1241L72.8675 94.2082C73.991 95.0071 75.3353 95.4364 76.7139 95.4364C78.0925 95.4364 79.4369 95.0071 80.5604 94.2082C81.6749 93.4081 82.5141 92.2824 82.9625 90.9858C83.4109 89.6892 83.4465 88.2855 83.0643 86.9678L75.6731 60.9025C75.634 60.7717 75.6361 60.6319 75.6793 60.5023C75.7225 60.3727 75.8046 60.2596 75.9145 60.1785L97.3037 43.2843Z" fill="#EC4176"/>
</svg>
