<svg width="100" height="100" viewBox="0 0 100 100" fill="none" xmlns="http://www.w3.org/2000/svg">
<path d="M26.2162 85.9459L27.8377 86.7569C34.5949 90.8108 42.1622 92.7027 49.73 92.7027C73.5138 92.7027 92.9732 73.2433 92.9732 49.4595C92.9732 38.1083 88.3784 27.0272 80.2706 18.9189C72.1623 10.8107 61.3512 6.21631 49.73 6.21631C25.9462 6.21631 6.48637 25.6757 6.75681 49.73C6.75681 57.8378 9.18924 65.676 13.2432 72.4324L14.3242 74.0542L10.0002 90.0002L26.2162 85.9459Z" fill="#00E676"/>
<path d="M84.8649 14.5946C75.6757 5.1353 62.9731 0 50 0C22.4327 0 0.270442 22.4324 0.540497 49.7296C0.540497 58.3783 2.97292 66.7569 7.02723 74.3243L0 100L26.2162 93.2432C33.5135 97.2975 41.6213 99.1894 49.7299 99.1894C77.0272 99.1894 99.1894 76.7567 99.1894 49.4599C99.1894 36.2164 94.0541 23.7838 84.8653 14.5946H84.8649ZM50 90.8112C42.7027 90.8112 35.4054 88.9196 29.1891 85.1358L27.5676 84.3248L11.8921 88.3787L15.946 72.9736L14.865 71.3517C2.97292 52.1628 8.64872 26.7567 28.1081 14.8646C47.5676 2.97293 72.7028 8.64872 84.5949 28.1081C96.4866 47.5676 90.8108 72.7028 71.3517 84.5949C65.1351 88.6488 57.5677 90.8108 50 90.8108V90.8112ZM73.7838 60.8115L70.8109 59.46C70.8109 59.46 66.4869 57.5681 63.784 56.2167C63.5136 56.2167 63.2435 55.9462 62.9731 55.9462C62.1621 55.9462 61.6216 56.2167 61.0811 56.4871C61.0811 56.4871 60.8111 56.7572 57.0272 61.0815C56.7568 61.622 56.2163 61.8925 55.6758 61.8925H55.4053C55.1353 61.8925 54.5948 61.622 54.3244 61.352L52.9729 60.8115C50 59.46 47.2975 57.8382 45.1351 55.6762C44.5946 55.1357 43.7837 54.5952 43.2432 54.0547C41.3513 52.1628 39.4593 50.0004 38.1083 47.568L37.8379 47.0275C37.5678 46.757 37.5678 46.487 37.2974 45.9465C37.2974 45.406 37.2974 44.8655 37.5678 44.595C37.5678 44.595 38.6488 43.2436 39.4593 42.433C40.0002 41.8922 40.2703 41.0816 40.8108 40.5411C41.3513 39.7302 41.6217 38.6492 41.3513 37.8382C41.0812 36.4868 37.8379 29.1895 37.0273 27.568C36.4864 26.7571 35.9463 26.487 35.1354 26.2166H32.1625C31.6216 26.2166 31.0815 26.487 30.5406 26.487L30.2701 26.7571C29.7296 27.0275 29.1891 27.568 28.6486 27.8381C28.1081 28.379 27.8377 28.9191 27.2972 29.46C25.4053 31.8924 24.3243 34.8653 24.3243 37.8382C24.3243 40.0002 24.8648 42.1626 25.6757 44.0545L25.9462 44.8655C28.3786 50.0004 31.6216 54.5952 35.9463 58.6491L37.0273 59.7301C37.8379 60.541 38.6488 61.0815 39.1893 61.8921C44.8651 66.7573 51.3514 70.2707 58.6487 72.1627C59.4597 72.4327 60.5406 72.4327 61.3516 72.7032H64.0541C65.4055 72.7032 67.027 72.1627 68.1084 71.6222C68.9189 71.0817 69.4594 71.0817 69.9999 70.5412L70.5408 70.0003C71.0813 69.4598 71.6218 69.1898 72.1623 68.6493C72.7028 68.1088 73.2433 67.5683 73.5137 67.0274C74.0542 65.9464 74.3243 64.595 74.5947 63.2439V61.352C74.5947 61.352 74.3243 61.0815 73.7838 60.8115V60.8115Z" fill="white"/>
</svg>
